HIERARCHY
ROOT Hips
{
	OFFSET 0.000000 0.000000 0.000000
	CHANNELS 6 Xposition Yposition Zposition Zrotation Yrotation Xrotation 
	JOINT LHipJoint
	{
		OFFSET 0.000000 0.000000 0.000000
		CHANNELS 3 Zrotation Yrotation Xrotation
		JOINT LeftUpLeg
		{
			OFFSET 1.363060 -1.794630 0.839290
			CHANNELS 3 Zrotation Yrotation Xrotation
			JOINT LeftLeg
			{
				OFFSET 2.448110 -6.726130 0.000000
				CHANNELS 3 Zrotation Yrotation Xrotation
				JOINT LeftFoot
				{
					OFFSET 2.562200 -7.039590 0.000000
					CHANNELS 3 Zrotation Yrotation Xrotation
					JOINT LeftToeBase
					{
						OFFSET 0.157640 -0.433110 2.322550
						CHANNELS 3 Zrotation Yrotation Xrotation
						End Site
						{
							OFFSET 0.000000 0.000000 0.000000
						}
					}
				}
			}
		}
	}
	JOINT RHipJoint
	{
		OFFSET 0.000000 0.000000 0.000000
		CHANNELS 3 Zrotation Yrotation Xrotation
		JOINT RightUpLeg
		{
			OFFSET -1.305520 -1.794630 0.839290
			CHANNELS 3 Zrotation Yrotation Xrotation
			JOINT RightLeg
			{
				OFFSET -2.542530 -6.985550 0.000000
				CHANNELS 3 Zrotation Yrotation Xrotation
				JOINT RightFoot
				{
					OFFSET -2.568260 -7.056230 0.000000
					CHANNELS 3 Zrotation Yrotation Xrotation
					JOINT RightToeBase
					{
						OFFSET -0.164730 -0.452590 2.363150
						CHANNELS 3 Zrotation Yrotation Xrotation
						End Site
						{
							OFFSET 0.000000 0.000000 0.000000
						}
					}
				}
			}
		}
	}
}
MOTION
Frames: 13
Frame Time: 0.008333
0.873979 17.992157 -0.049738 116.255643 88.551255 137.088685 -8.898301 1.498792 3.069216 -16.912583 -2.002020 -37.519989 -3.586814 -0.320797 4.972340 -0.704201 -3.671452 18.780120 -1.003700 -0.000000 -55.183300 10.895432 -3.502086 -1.139947 9.871269 -7.900368 -6.281288 0.289356 -2.085024 30.102537 -1.008967 -5.075636 14.730791 -1.980401 0.000000 -63.678500
1.117178 17.934754 -0.045049 117.655003 88.716217 138.251291 -8.934246 1.499121 3.017534 -17.006451 -2.105075 -37.512033 -3.493629 -0.236458 6.012882 -0.641900 -3.204267 18.026408 -0.773401 -0.000000 -53.899300 10.914521 -3.445329 -1.265364 9.614471 -7.952587 -6.838677 0.156215 -2.241476 32.869442 -1.113595 -5.619301 13.812558 -2.078000 0.000001 -63.088600
1.359167 17.865653 -0.039613 118.713475 88.865699 139.097408 -8.957326 1.482025 3.019925 -16.891015 -2.570554 -37.407700 -3.344704 -0.156716 7.286162 -0.524423 -2.264093 16.811107 -0.342200 -0.000000 -51.798300 10.944530 -3.381952 -1.398612 9.317645 -7.993052 -7.492876 0.028367 -2.405099 35.682081 -1.196886 -5.996698 12.991030 -2.107300 0.000000 -62.517600
1.600479 17.784539 -0.032926 119.050398 88.983996 139.256021 -8.960852 1.444132 3.078256 -16.615748 -3.390952 -37.232519 -3.152356 -0.087369 8.778569 -0.351459 -0.930954 15.122348 0.215399 -0.000000 -48.949499 10.986883 -3.314930 -1.532246 8.969881 -8.018153 -8.254930 -0.094235 -2.575221 38.531695 -1.262678 -6.248206 12.211859 -2.086200 0.000000 -62.026499
1.841491 17.691127 -0.024712 118.461595 89.066613 138.525002 -8.943106 1.385027 3.176385 -16.264599 -4.466590 -37.074335 -2.935096 -0.022527 10.583340 -0.130405 0.610559 12.902060 0.773500 0.000000 -45.266100 11.038808 -3.249743 -1.654437 8.576542 -8.023542 -9.136403 -0.211467 -2.751297 41.423030 -1.314984 -6.417888 11.392843 -2.028800 0.000000 -61.417400
2.082636 17.585744 -0.014463 116.172473 89.086149 136.138901 -8.904138 1.298761 3.310616 -15.903996 -5.763613 -36.962386 -2.707256 0.034532 12.677045 0.141347 2.281971 10.190802 1.246700 -0.000001 -41.002100 11.098124 -3.191167 -1.756005 8.119163 -7.999594 -10.150772 -0.324632 -2.934762 44.349899 -1.362004 -6.570408 10.484775 -1.954800 0.000000 -60.879500
2.323955 17.469011 -0.002157 111.949968 89.043157 131.860056 -8.856302 1.185019 3.455397 -15.609434 -7.134655 -36.982447 -2.485962 0.096327 15.153829 0.453795 3.906124 6.984456 1.522000 0.000001 -36.198600 11.154091 -3.143707 -1.826075 7.608789 -7.934657 -11.301057 -0.436077 -3.125037 47.315332 -1.408813 -6.755841 9.422664 -1.874700 0.000000 -60.178501
2.565457 17.342174 0.012262 105.576440 88.932191 125.470457 -8.814526 1.046573 3.596318 -15.425203 -8.478525 -37.166204 -2.283238 0.169906 17.999817 0.801162 5.403160 3.364043 1.545000 -0.000000 -31.097500 11.195823 -3.105113 -1.857609 7.049131 -7.811482 -12.585644 -0.551410 -3.318607 50.308425 -1.462464 -7.030659 8.182165 -1.799801 -0.000000 -59.388200
2.806893 17.207226 0.028655 97.185263 88.757809 117.097570 -8.795563 0.893093 3.715697 -15.372114 -9.681100 -37.534819 -2.107809 0.266569 21.197587 1.171897 6.710187 -0.565656 1.296499 -0.000000 -25.921000 11.214290 -3.067579 -1.846902 6.453244 -7.612642 -13.995211 -0.676837 -3.508771 53.315501 -1.527321 -7.425818 6.753516 -1.729899 0.000000 -58.387600
3.047709 17.066702 0.046726 87.547489 88.534385 107.503955 -8.806001 0.743365 3.800909 -15.437684 -10.656471 -38.072789 -1.963913 0.394616 24.667880 1.552088 7.814046 -4.652688 0.805200 -0.000000 -21.039300 11.212259 -3.016706 -1.794264 5.848184 -7.323133 -15.509929 -0.817628 -3.685713 56.310393 -1.607839 -7.963750 5.148875 -1.659700 -0.000001 -57.120699
3.287554 16.924064 0.066420 77.356988 88.261752 97.380706 -8.843447 0.616458 3.846505 -15.602959 -11.361113 -38.738678 -1.853116 0.555857 28.286410 1.926338 8.733718 -8.728449 0.132100 -0.000000 -16.717100 11.201460 -2.939592 -1.700464 5.247559 -6.934597 -17.119152 -0.974750 -3.841989 59.258118 -1.706166 -8.638355 3.409299 -1.576800 -0.000000 -55.573100
3.525596 16.782951 0.087477 67.714136 87.958682 87.816618 -8.896120 0.527576 3.846610 -15.835253 -11.776399 -39.464276 -1.772316 0.746394 31.916594 2.277528 9.488682 -12.626984 -0.647700 0.000000 -13.291701 11.201628 -2.828781 -1.572141 4.674711 -6.456860 -18.796945 -1.143297 -3.975805 62.114644 -1.822278 -9.427453 1.574785 -1.466101 0.000000 -53.644000
3.761291 16.647526 0.109891 59.326480 87.641905 79.512132 -8.952519 0.480992 3.800942 -16.111439 -11.917684 -40.170679 -1.716770 0.954318 35.411826 2.591245 10.095754 -16.212534 -1.459700 0.000000 -10.889400 11.227002 -2.685491 -1.415820 4.136786 -5.908334 -20.524477 -1.315166 -4.091167 64.828209 -1.953479 -10.291541 -0.296076 -1.315900 -0.000000 -51.341800
